<svg xmlns="http://www.w3.org/2000/svg" 
version="1.1" xmlns:xlink="http://www.w3.org/1999/xlink"
 xmlns:svgjs="http://svgjs.dev/svgjs" width="1440" height="560" preserveAspectRatio="none" viewBox="0 0 1440 560"><g mask="url(&quot;#SvgjsMask1000&quot;)" fill="none"><rect width="1440" height="560" x="0" y="0" fill="#0e2a47"></rect><path d="M1421.08 383.43 L1317.6599999999999 345.48L1295.0220607416165 438.8029392583835z" stroke="#e73635" stroke-width="1.12" stroke-dasharray="3, 3"></path><rect width="336" height="336" clip-path="url(&quot;#SvgjsClipPath1001&quot;)" x="1232.01" y="11.88" fill="url(&quot;#SvgjsPattern1002&quot;)" transform="rotate(124.32, 1400.01, 179.88)"></rect><rect width="120" height="120" clip-path="url(&quot;#SvgjsClipPath1003&quot;)" x="1070.93" y="427.72" fill="url(&quot;#SvgjsPattern1004&quot;)" transform="rotate(73.8, 1130.93, 487.72)"></rect><path d="M1198.5500000000002 468.5 L1257.68 447.80999999999995L1192.6803540498831 422.7203540498828z" fill="#e73635"></path><circle r="46.666666666666664" cx="792.32" cy="292.35" fill="#e73635"></circle><rect width="139.2" height="139.2" clip-path="url(&quot;#SvgjsClipPath1005&quot;)" x="398.45" y="367.35" fill="url(&quot;#SvgjsPattern1006&quot;)" transform="rotate(5.57, 468.05, 436.95)"></rect><rect width="259.84" height="259.84" clip-path="url(&quot;#SvgjsClipPath1007&quot;)" x="-67.87" y="-15.41" fill="url(&quot;#SvgjsPattern1008&quot;)" transform="rotate(284.79, 62.05, 114.51)"></rect><rect width="196.4" height="196.4" clip-path="url(&quot;#SvgjsClipPath1009&quot;)" x="746.01" y="119.09" fill="url(&quot;#SvgjsPattern1010&quot;)" transform="rotate(227.53, 844.21, 217.29)"></rect><path d="M1015.76 190.37L1026.7 197.03 1022.62 209.16 1033.56 215.81 1029.47 227.95 1040.41 234.6 1036.32 246.74M1008.25 193.11L1019.19 199.77 1015.1 211.9 1026.04 218.56 1021.95 230.69 1032.9 237.35 1028.81 249.48M1000.73 195.86L1011.67 202.51 1007.58 214.64 1018.53 221.3 1014.44 233.43 1025.38 240.09 1021.29 252.22" stroke="#d3b714" stroke-width="2.74"></path><rect width="288" height="288" clip-path="url(&quot;#SvgjsClipPath1011&quot;)" x="-104.75" y="-4.09" fill="url(&quot;#SvgjsPattern1012&quot;)" transform="rotate(313.77, 39.25, 139.91)"></rect><path d="M1305.69 419.41a5.6 5.6 0 1 0 9.98 5.1 5.6 5.6 0 1 0-9.98-5.1zM1319.94 426.69a5.6 5.6 0 1 0 9.97 5.1 5.6 5.6 0 1 0-9.97-5.1zM1334.19 433.97a5.6 5.6 0 1 0 9.97 5.1 5.6 5.6 0 1 0-9.97-5.1zM1348.44 441.25a5.6 5.6 0 1 0 9.97 5.1 5.6 5.6 0 1 0-9.97-5.1zM1269.92 419.11a5.6 5.6 0 1 0 9.97 5.09 5.6 5.6 0 1 0-9.97-5.09zM1284.17 426.38a5.6 5.6 0 1 0 9.97 5.1 5.6 5.6 0 1 0-9.97-5.1zM1298.41 433.66a5.6 5.6 0 1 0 9.98 5.1 5.6 5.6 0 1 0-9.98-5.1zM1312.66 440.94a5.6 5.6 0 1 0 9.98 5.1 5.6 5.6 0 1 0-9.98-5.1zM1234.14 418.8a5.6 5.6 0 1 0 9.97 5.09 5.6 5.6 0 1 0-9.97-5.09zM1248.39 426.08a5.6 5.6 0 1 0 9.97 5.09 5.6 5.6 0 1 0-9.97-5.09zM1262.64 433.35a5.6 5.6 0 1 0 9.97 5.1 5.6 5.6 0 1 0-9.97-5.1zM1276.89 440.63a5.6 5.6 0 1 0 9.97 5.1 5.6 5.6 0 1 0-9.97-5.1z" fill="#037b0b"></path><circle r="46.666666666666664" cx="1433.74" cy="277.81" fill="#037b0b"></circle></g><defs><mask id="SvgjsMask1000"><rect width="1440" height="560" fill="#ffffff"></rect></mask><pattern x="0" y="0" width="336" height="6" patternUnits="userSpaceOnUse" id="SvgjsPattern1002"><rect width="336" height="3" x="0" y="0" fill="#e73635"></rect><rect width="336" height="3" x="0" y="3" fill="rgba(0, 0, 0, 0)"></rect></pattern><clipPath id="SvgjsClipPath1001"><circle r="84" cx="1400.01" cy="179.88"></circle></clipPath><pattern x="0" y="0" width="6" height="6" patternUnits="userSpaceOnUse" id="SvgjsPattern1004"><path d="M3 1L3 5M1 3L5 3" stroke="#e73635" fill="none" stroke-width="1"></path></pattern><clipPath id="SvgjsClipPath1003"><circle r="30" cx="1130.93" cy="487.72"></circle></clipPath><pattern x="0" y="0" width="139.2" height="13.92" patternUnits="userSpaceOnUse" id="SvgjsPattern1006"><rect width="139.2" height="6.96" x="0" y="0" fill="#e73635"></rect><rect width="139.2" height="6.96" x="0" y="6.96" fill="rgba(0, 0, 0, 0)"></rect></pattern><clipPath id="SvgjsClipPath1005"><circle r="34.8" cx="468.05" cy="436.95"></circle></clipPath><pattern x="0" y="0" width="8.12" height="8.12" patternUnits="userSpaceOnUse" id="SvgjsPattern1008"><path d="M0 8.12L4.06 0L8.12 8.12" stroke="#037b0b" fill="none"></path></pattern><clipPath id="SvgjsClipPath1007"><circle r="64.96" cx="62.05" cy="114.51"></circle></clipPath><pattern x="0" y="0" width="9.82" height="9.82" patternUnits="userSpaceOnUse" id="SvgjsPattern1010"><path d="M4.91 1L4.91 8.82M1 4.91L8.82 4.91" stroke="#e73635" fill="none" stroke-width="1"></path></pattern><clipPath id="SvgjsClipPath1009"><circle r="49.1" cx="844.21" cy="217.29"></circle></clipPath><pattern x="0" y="0" width="6" height="6" patternUnits="userSpaceOnUse" id="SvgjsPattern1012"><path d="M3 1L3 5M1 3L5 3" stroke="#d3b714" fill="none" stroke-width="1"></path></pattern><clipPath id="SvgjsClipPath1011"><circle r="72" cx="39.25" cy="139.91"></circle></clipPath></defs></svg>